<svg xmlns="http://www.w3.org/2000/svg" viewBox="0 0 512 512">
  <path d="M108.4 0h23v22.8h21.2V0h23v69h-23V46h-21.2v23h-23V0zm96.9 0h22.2l13.9 22.8L255.4 0h22.2v69h-22.7V34l-15 22.9-15-22.9V69h-22.5V0zm114.3 0h23v46.2h32.5V69h-55.4V0z"/>
  <path fill="#e44d26" d="M107.6 471l-33-370.4h362.8l-33 370.2L255.7 512"/>
  <path fill="#f16529" d="M256 480.5V131H404.3L376 447"/>
  <path fill="#ebebeb" d="M142 176.3h114v45.4h-64.2l4.2 46.5h60v45.3H154.4zm0 204.6l7 70.5 107.1 29.5V434l-66.2-18.2-4.1-46h-44.8"/>
  <path fill="#fff" d="M256.1 176.3H370l-4 45.4h-110v46.5h106l-10.5 113.7-95.5 26.5V362l67.4-18.2 4.7-52H256.1"/>
</svg>
