<svg xmlns="http://www.w3.org/2000/svg" viewBox="0 0 128 128">
  <rect width="128" height="128" rx="16" fill="#f05138"/>
  <path d="M102 26c-14-8-33-10-50-2C36 32 22 47 20 65c-1 10 2 20 8 28 1 1 2 3 3 4-4-6-5-14-3-21 3-10 11-18 20-24 13-8 28-12 41-9-16 10-29 26-33 44-2 8-1 16 3 23 1 2 3 4 5 6 7 7 16 11 26 11h1c12 0 23-5 31-14 8-8 13-19 13-31 0-17-9-33-24-41 7 8 11 18 10 29-1 9-6 18-13 24l-1 1c-5-15-15-29-29-38 18 5 33 19 38 37 2 6 2 13 1 19 9-8 15-19 15-31 0-17-9-31-22-37z" fill="#fff"/>
</svg>
