<svg xmlns="http://www.w3.org/2000/svg" viewBox="0 0 630 630">
  <rect width="630" height="630" fill="#3178c6"/>
  <path fill="#fff" d="M116.318 226H265v39.385H214.44V476H164.89V265.385H116.318zm318.614 63.461c-17.89-7.636-30.45-11.454-46.93-11.454-22.07 0-34.63 10.22-34.63 23.48 0 13.26 10.22 21.9 36.43 33.39l14.54 6.82c51.83 23.48 81.97 48.96 81.97 99.83 0 57.41-45.9 90.8-107.5 90.8-37.47 0-73.89-10.87-105.39-29.41v-53.9c31.49 22.07 64.89 36.49 99.48 36.49 27.25 0 41.65-11.46 41.65-28.4 0-16.94-11.46-26.16-42.94-40.57l-14.53-6.81c-48.96-21.07-80.46-47.93-80.46-99.83 0-53.87 41.65-87.26 99.57-87.26 33.39 0 61.6 8.64 88.75 23.08z"/>
</svg>
